<svg xmlns="http://www.w3.org/2000/svg" width="205" height="205" viewBox="0 0 205 205" fill="none">
<rect x="3.5" y="3.5" width="197" height="197" rx="18.5" fill="#D1D5DB" stroke="#EF4444" stroke-width="3"/>
<g filter="url(#filter0_d)">
<circle cx="145.5" cy="93.5" r="21.5" fill="#F1F5F9"/>
<path d="M143.604 89.8965C143.604 90.444 143.774 90.9113 144.114 91.2983C144.463 91.6759 144.978 91.8647 145.657 91.8647C146.327 91.8647 146.842 91.6759 147.201 91.2983C147.559 90.9207 147.739 90.4535 147.739 89.8965C147.739 89.3301 147.559 88.8534 147.201 88.4663C146.851 88.0698 146.337 87.8716 145.657 87.8716C144.968 87.8716 144.454 88.0698 144.114 88.4663C143.774 88.8628 143.604 89.3395 143.604 89.8965ZM146.974 103.391V100.899H144.128V103.434C144.128 104.236 144.034 105.01 143.845 105.756C143.656 106.502 143.335 107.205 142.882 107.866L144.51 108.758C145.265 108.088 145.865 107.262 146.309 106.28C146.752 105.298 146.974 104.335 146.974 103.391Z" fill="#111827"/>
</g>
<g filter="url(#filter1_d)">
<circle cx="54.5" cy="43.5" r="21.5" fill="#F1F5F9"/>
</g>
<g filter="url(#filter2_d)">
<circle cx="149.5" cy="30.5" r="21.5" fill="#F1F5F9"/>
<path d="M156.709 30.5215L154.812 30.2666C154.812 30.6253 154.75 30.9699 154.627 31.3003C154.505 31.6307 154.34 31.9186 154.132 32.1641C153.915 32.4189 153.66 32.6219 153.367 32.7729C153.084 32.924 152.777 32.9995 152.447 32.9995C152.164 33.009 151.89 32.9806 151.625 32.9146C151.361 32.839 151.102 32.7305 150.847 32.5889C150.63 32.4756 150.408 32.3387 150.181 32.1782C149.955 32.0083 149.719 31.8195 149.473 31.6118C149.105 31.3097 148.742 31.036 148.383 30.7905C148.034 30.5451 147.675 30.3374 147.307 30.1675C146.938 29.9976 146.556 29.8701 146.16 29.7852C145.773 29.6908 145.362 29.6436 144.928 29.6436C144.295 29.6436 143.719 29.771 143.2 30.0259C142.681 30.2713 142.237 30.6064 141.869 31.0312C141.492 31.4561 141.199 31.9517 140.991 32.5181C140.784 33.0845 140.68 33.6792 140.68 34.3022L142.577 34.543C142.577 34.1842 142.639 33.8491 142.761 33.5376C142.884 33.2166 143.049 32.9382 143.257 32.7021C143.465 32.4756 143.71 32.2962 143.993 32.1641C144.286 32.0225 144.597 31.9517 144.928 31.9517C145.145 31.9517 145.353 31.9705 145.551 32.0083C145.758 32.0461 145.961 32.1074 146.16 32.1924C146.443 32.3057 146.726 32.4614 147.009 32.6597C147.302 32.8485 147.604 33.0703 147.916 33.3252C148.293 33.6462 148.657 33.9294 149.006 34.1748C149.365 34.4202 149.728 34.6279 150.096 34.7979C150.455 34.9678 150.823 35.0952 151.201 35.1802C151.588 35.2651 152.003 35.3076 152.447 35.3076C153.079 35.3076 153.655 35.1755 154.174 34.9111C154.694 34.6468 155.142 34.2928 155.52 33.8491C155.897 33.4054 156.19 32.8957 156.397 32.3198C156.605 31.744 156.709 31.1445 156.709 30.5215Z" fill="#111827"/>
</g>
<g filter="url(#filter3_d)">
<circle cx="171.5" cy="157.5" r="21.5" fill="#F1F5F9"/>
</g>
<path d="M168 155L171 158L168 161V155ZM173 161H176H173ZM165 166H179C179.53 166 180.039 165.789 180.414 165.414C180.789 165.039 181 164.53 181 164V152C181 151.47 180.789 150.961 180.414 150.586C180.039 150.211 179.53 150 179 150H165C164.47 150 163.961 150.211 163.586 150.586C163.211 150.961 163 151.47 163 152V164C163 164.53 163.211 165.039 163.586 165.414C163.961 165.789 164.47 166 165 166Z" stroke="#111827" stroke-width="2" stroke-linecap="round" stroke-linejoin="round"/>
<g filter="url(#filter4_d)">
<circle cx="32.5" cy="168.5" r="21.5" fill="#F1F5F9"/>
</g>
<path d="M30 177L34 161M38 165L42 169L38 173M26 173L22 169L26 165" stroke="#111827" stroke-width="2" stroke-linecap="round" stroke-linejoin="round"/>
<path d="M54 37.253C55.168 36.477 56.754 36 58.5 36C60.247 36 61.832 36.477 63 37.253V50.253C61.832 49.477 60.247 49 58.5 49C56.754 49 55.168 49.477 54 50.253M54 37.253V50.253V37.253ZM54 37.253C52.832 36.477 51.246 36 49.5 36C47.754 36 46.168 36.477 45 37.253V50.253C46.168 49.477 47.754 49 49.5 49C51.246 49 52.832 49.477 54 50.253V37.253Z" stroke="#111827" stroke-width="2" stroke-linecap="round" stroke-linejoin="round"/>
<rect x="3.5" y="3.5" width="197" height="197" rx="18.5" fill="#D1D5DB" fill-opacity="0.5" stroke="#EF4444" stroke-width="3"/>
<g filter="url(#filter5_d)">
<path d="M70.0102 71.5143C69.9216 67.1884 70.9 62.9077 72.8585 59.0532C74.715 55.5129 77.335 52.4327 80.5275 50.037C83.6594 47.7146 87.1681 45.9539 90.8985 44.8327C94.7006 43.6172 98.6672 42.9991 102.657 43.0002C106.649 42.9883 110.617 43.6067 114.416 44.8327C118.229 45.9729 121.832 47.7308 125.08 50.037C128.116 52.4968 130.604 55.5684 132.383 59.0532C134.342 62.9077 135.32 67.1884 135.232 71.5143V77.4519L115.877 71.5143C116.006 69.8128 115.714 68.1058 115.026 66.5453C114.337 64.9849 113.275 63.6197 111.933 62.5717C109.208 60.7124 105.989 59.7183 102.694 59.7183C99.3989 59.7183 96.1798 60.7124 93.4548 62.5717C92.1129 63.6197 91.0504 64.9849 90.3622 66.5453C89.674 68.1058 89.3817 69.8128 89.511 71.5143V136.234C89.3809 137.925 89.6733 139.622 90.362 141.171C91.0507 142.72 92.1138 144.072 93.4548 145.104C96.1605 147.012 99.387 148.036 102.694 148.036C106.001 148.036 109.227 147.012 111.933 145.104C113.274 144.072 114.811 139.549 115.5 138C116.189 136.451 116.007 137.925 115.877 136.234V111.244H105.997L100.393 96.5835H135.378V133.234C135.529 137.353 134.669 141.446 132.873 145.153C131.077 148.86 128.401 152.067 125.08 154.492C121.88 156.929 118.267 158.767 114.416 159.916C110.617 161.142 106.649 161.76 102.657 161.749C98.6672 161.75 94.7006 161.132 90.8985 159.916C87.1322 158.779 83.6137 156.938 80.5275 154.492C77.3319 152.251 74.705 149.288 72.8585 145.842C70.8674 141.947 69.8878 137.61 70.0102 133.234V71.5143Z" fill="#3730A3"/>
</g>
<defs>
<filter id="filter0_d" x="120" y="72" width="51" height="51" filterUnits="userSpaceOnUse" color-interpolation-filters="sRGB">
<feFlood flood-opacity="0" result="BackgroundImageFix"/>
<feColorMatrix in="SourceAlpha" type="matrix" values="0 0 0 0 0 0 0 0 0 0 0 0 0 0 0 0 0 0 127 0"/>
<feOffset dy="4"/>
<feGaussianBlur stdDeviation="2"/>
<feColorMatrix type="matrix" values="0 0 0 0 0 0 0 0 0 0 0 0 0 0 0 0 0 0 0.25 0"/>
<feBlend mode="normal" in2="BackgroundImageFix" result="effect1_dropShadow"/>
<feBlend mode="normal" in="SourceGraphic" in2="effect1_dropShadow" result="shape"/>
</filter>
<filter id="filter1_d" x="29" y="22" width="51" height="51" filterUnits="userSpaceOnUse" color-interpolation-filters="sRGB">
<feFlood flood-opacity="0" result="BackgroundImageFix"/>
<feColorMatrix in="SourceAlpha" type="matrix" values="0 0 0 0 0 0 0 0 0 0 0 0 0 0 0 0 0 0 127 0"/>
<feOffset dy="4"/>
<feGaussianBlur stdDeviation="2"/>
<feColorMatrix type="matrix" values="0 0 0 0 0 0 0 0 0 0 0 0 0 0 0 0 0 0 0.25 0"/>
<feBlend mode="normal" in2="BackgroundImageFix" result="effect1_dropShadow"/>
<feBlend mode="normal" in="SourceGraphic" in2="effect1_dropShadow" result="shape"/>
</filter>
<filter id="filter2_d" x="124" y="9" width="51" height="51" filterUnits="userSpaceOnUse" color-interpolation-filters="sRGB">
<feFlood flood-opacity="0" result="BackgroundImageFix"/>
<feColorMatrix in="SourceAlpha" type="matrix" values="0 0 0 0 0 0 0 0 0 0 0 0 0 0 0 0 0 0 127 0"/>
<feOffset dy="4"/>
<feGaussianBlur stdDeviation="2"/>
<feColorMatrix type="matrix" values="0 0 0 0 0 0 0 0 0 0 0 0 0 0 0 0 0 0 0.25 0"/>
<feBlend mode="normal" in2="BackgroundImageFix" result="effect1_dropShadow"/>
<feBlend mode="normal" in="SourceGraphic" in2="effect1_dropShadow" result="shape"/>
</filter>
<filter id="filter3_d" x="146" y="136" width="51" height="51" filterUnits="userSpaceOnUse" color-interpolation-filters="sRGB">
<feFlood flood-opacity="0" result="BackgroundImageFix"/>
<feColorMatrix in="SourceAlpha" type="matrix" values="0 0 0 0 0 0 0 0 0 0 0 0 0 0 0 0 0 0 127 0"/>
<feOffset dy="4"/>
<feGaussianBlur stdDeviation="2"/>
<feColorMatrix type="matrix" values="0 0 0 0 0 0 0 0 0 0 0 0 0 0 0 0 0 0 0.25 0"/>
<feBlend mode="normal" in2="BackgroundImageFix" result="effect1_dropShadow"/>
<feBlend mode="normal" in="SourceGraphic" in2="effect1_dropShadow" result="shape"/>
</filter>
<filter id="filter4_d" x="7" y="147" width="51" height="51" filterUnits="userSpaceOnUse" color-interpolation-filters="sRGB">
<feFlood flood-opacity="0" result="BackgroundImageFix"/>
<feColorMatrix in="SourceAlpha" type="matrix" values="0 0 0 0 0 0 0 0 0 0 0 0 0 0 0 0 0 0 127 0"/>
<feOffset dy="4"/>
<feGaussianBlur stdDeviation="2"/>
<feColorMatrix type="matrix" values="0 0 0 0 0 0 0 0 0 0 0 0 0 0 0 0 0 0 0.25 0"/>
<feBlend mode="normal" in2="BackgroundImageFix" result="effect1_dropShadow"/>
<feBlend mode="normal" in="SourceGraphic" in2="effect1_dropShadow" result="shape"/>
</filter>
<filter id="filter5_d" x="66" y="43" width="73.3948" height="126.749" filterUnits="userSpaceOnUse" color-interpolation-filters="sRGB">
<feFlood flood-opacity="0" result="BackgroundImageFix"/>
<feColorMatrix in="SourceAlpha" type="matrix" values="0 0 0 0 0 0 0 0 0 0 0 0 0 0 0 0 0 0 127 0"/>
<feOffset dy="4"/>
<feGaussianBlur stdDeviation="2"/>
<feColorMatrix type="matrix" values="0 0 0 0 0 0 0 0 0 0 0 0 0 0 0 0 0 0 0.25 0"/>
<feBlend mode="normal" in2="BackgroundImageFix" result="effect1_dropShadow"/>
<feBlend mode="normal" in="SourceGraphic" in2="effect1_dropShadow" result="shape"/>
</filter>
</defs>
</svg>
