<svg id="Layer_1" data-name="Layer 1" xmlns="http://www.w3.org/2000/svg" viewBox="0 0 149.35 148.81"><defs><style>.cls-1{fill:#d1d3d4;}.cls-2,.cls-8{fill:none;stroke-miterlimit:10;}.cls-2{stroke:#cf2027;}.cls-3{fill:#231f20;}.cls-4{fill:#939598;}.cls-5{fill:#808285;}.cls-6{fill:#f1f2f2;}.cls-7{opacity:0.45;}.cls-8{stroke:#4d4a42;opacity:0.5;}</style></defs><rect class="cls-1" x="0.5" y="0.5" width="147.81" height="147.81" rx="25"/><rect class="cls-2" x="0.5" y="0.5" width="147.81" height="147.81" rx="25"/><path class="cls-3" d="M259.22,360.86a3.58,3.58,0,0,1,.39-1.7,3.67,3.67,0,0,1,1.05-1.23,4.62,4.62,0,0,1,1.42-.71,5.3,5.3,0,0,1,1.61-.25,5.21,5.21,0,0,1,1.61.25,5,5,0,0,1,1.46.71,3.82,3.82,0,0,1,1,1.23,3.58,3.58,0,0,1,.39,1.7v.81H265.5v-.81a1.41,1.41,0,0,0-.54-1.22,2.25,2.25,0,0,0-2.53,0,1.41,1.41,0,0,0-.54,1.22v8.42a1.39,1.39,0,0,0,.54,1.21,2.2,2.2,0,0,0,2.53,0,1.39,1.39,0,0,0,.54-1.21v-3h-2.12v-2h4.79v5a3.43,3.43,0,0,1-1.41,2.9,4.57,4.57,0,0,1-1.46.74,5.21,5.21,0,0,1-1.61.25,5.3,5.3,0,0,1-1.61-.25,4.28,4.28,0,0,1-1.42-.74,3.41,3.41,0,0,1-1.05-1.18,3.55,3.55,0,0,1-.39-1.72Z" transform="translate(-231.94 -321.25)"/><path class="cls-4" d="M270.87,373V357.1h4.29q4.71,0,4.71,4.68a5.12,5.12,0,0,1-.51,2.39,3.67,3.67,0,0,1-1.79,1.59l2.88,7.27h-2.83l-2.49-6.8h-1.59V373Zm2.67-13.78v5h1.52a3.1,3.1,0,0,0,1.12-.17,1.41,1.41,0,0,0,.65-.48,2,2,0,0,0,.29-.77,7.13,7.13,0,0,0,0-2.13,1.85,1.85,0,0,0-.31-.79,2.3,2.3,0,0,0-1.89-.63Z" transform="translate(-231.94 -321.25)"/><path class="cls-3" d="M281.15,373l4.17-15.93h2.22L291.7,373H289l-.78-3.42h-3.64l-.79,3.42Zm6.6-5.57-1.31-5.77h-.05l-1.31,5.77Z" transform="translate(-231.94 -321.25)"/><path class="cls-4" d="M293.35,373V357.1H296v6.83h3.3V357.1H302V373h-2.67v-7.09H296V373Z" transform="translate(-231.94 -321.25)"/><path class="cls-3" d="M303.64,373l4.16-15.93H310L314.19,373h-2.67l-.79-3.42H307.1l-.79,3.42Zm6.6-5.57-1.31-5.77h-.05l-1.31,5.77Z" transform="translate(-231.94 -321.25)"/><path class="cls-4" d="M315.84,373V357.1h2.56l3.43,8.44h.06l3.4-8.44h2.59V373h-2.67v-9.68h0l-2.65,6.84h-1.33l-2.62-6.84h-.05V373Z" transform="translate(-231.94 -321.25)"/><path class="cls-3" d="M339.37,361.69H336.7v-.51a2.17,2.17,0,0,0-.43-1.36,1.71,1.71,0,0,0-1.45-.57,1.87,1.87,0,0,0-.89.18,1.53,1.53,0,0,0-.84,1.11,3.79,3.79,0,0,0-.08.77,5.75,5.75,0,0,0,0,.78,1.3,1.3,0,0,0,.2.56,1.24,1.24,0,0,0,.45.43,4.52,4.52,0,0,0,.83.36l2,.69a5.37,5.37,0,0,1,1.44.68,3,3,0,0,1,.86.91,3.58,3.58,0,0,1,.4,1.22,10.26,10.26,0,0,1,.1,1.55,7.37,7.37,0,0,1-.23,1.87,3.74,3.74,0,0,1-.76,1.47,3.87,3.87,0,0,1-1.44,1,5.85,5.85,0,0,1-2.18.36,5.57,5.57,0,0,1-1.8-.29,4.39,4.39,0,0,1-1.44-.81,4.06,4.06,0,0,1-1-1.19,3.3,3.3,0,0,1-.35-1.49v-.85h2.67v.71a1.66,1.66,0,0,0,.43,1.13,1.81,1.81,0,0,0,1.45.51,2.69,2.69,0,0,0,1.06-.17,1.29,1.29,0,0,0,.59-.48,1.52,1.52,0,0,0,.25-.75,9.75,9.75,0,0,0,0-1,9.21,9.21,0,0,0-.05-1,1.71,1.71,0,0,0-.21-.65,1.38,1.38,0,0,0-.48-.41c-.21-.1-.47-.21-.8-.33l-1.91-.67a4.17,4.17,0,0,1-2.32-1.6,4.89,4.89,0,0,1-.59-2.5,5.1,5.1,0,0,1,.29-1.7,3.71,3.71,0,0,1,.86-1.38,4,4,0,0,1,1.4-.93,5.42,5.42,0,0,1,2-.35,5.08,5.08,0,0,1,1.82.31,4.89,4.89,0,0,1,1.43.83,3.24,3.24,0,0,1,1.2,2.46Z" transform="translate(-231.94 -321.25)"/><path class="cls-4" d="M341.7,373V357.1h2.67v6.83h3.3V357.1h2.67V373h-2.67v-7.09h-3.3V373Z" transform="translate(-231.94 -321.25)"/><path class="cls-3" d="M292.76,401V387.25h-3.08V385.1h8.84v2.15h-3.09V401Z" transform="translate(-231.94 -321.25)"/><path class="cls-4" d="M300,401V385.1h2.67v6.83H306V385.1h2.67V401H306v-7.09h-3.3V401Z" transform="translate(-231.94 -321.25)"/><path class="cls-3" d="M311.53,401V385.1h8v2.15H314.2v4.68h4.61v2.15H314.2v4.67h5.29V401Z" transform="translate(-231.94 -321.25)"/><path class="cls-3" d="M269.51,417.69h-2.67v-.51a2.17,2.17,0,0,0-.44-1.36,1.69,1.69,0,0,0-1.45-.57,1.9,1.9,0,0,0-.89.18,1.65,1.65,0,0,0-.55.45,1.8,1.8,0,0,0-.29.66,3.87,3.87,0,0,0-.07.77q0,.46,0,.78a1.44,1.44,0,0,0,.2.56,1.37,1.37,0,0,0,.46.43,4.39,4.39,0,0,0,.82.36l2,.69a5.37,5.37,0,0,1,1.44.68,3.22,3.22,0,0,1,.86.91,3.8,3.8,0,0,1,.39,1.22,10.16,10.16,0,0,1,.11,1.55,6.94,6.94,0,0,1-.24,1.87,3.46,3.46,0,0,1-2.2,2.45,5.8,5.8,0,0,1-2.17.36,5.58,5.58,0,0,1-1.81-.29,4.39,4.39,0,0,1-1.44-.81,3.87,3.87,0,0,1-.95-1.19,3.18,3.18,0,0,1-.36-1.49v-.85H263v.71a1.67,1.67,0,0,0,.44,1.13,1.8,1.8,0,0,0,1.45.51,2.72,2.72,0,0,0,1.06-.17,1.34,1.34,0,0,0,.59-.48,1.63,1.63,0,0,0,.25-.75c0-.29,0-.62,0-1a7.07,7.07,0,0,0-.06-1,1.42,1.42,0,0,0-.21-.65,1.38,1.38,0,0,0-.48-.41,7.94,7.94,0,0,0-.8-.33l-1.91-.67a4.25,4.25,0,0,1-2.32-1.6,4.89,4.89,0,0,1-.58-2.5,5.09,5.09,0,0,1,.28-1.7,3.73,3.73,0,0,1,.87-1.38,3.82,3.82,0,0,1,1.4-.93,5.35,5.35,0,0,1,2-.35,5.08,5.08,0,0,1,1.82.31,4.83,4.83,0,0,1,1.42.83,3.25,3.25,0,0,1,1.21,2.46Z" transform="translate(-231.94 -321.25)"/><path class="cls-5" d="M280.32,424.49v1a3.1,3.1,0,0,1-.33,1.4,3.9,3.9,0,0,1-.9,1.17,4.47,4.47,0,0,1-3,1.12,7,7,0,0,1-1.55-.18,3.91,3.91,0,0,1-1.41-.63,3.32,3.32,0,0,1-1.44-2.95v-8.77a3.34,3.34,0,0,1,.31-1.45,3.5,3.5,0,0,1,.89-1.17,4.29,4.29,0,0,1,1.38-.77A5.2,5.2,0,0,1,276,413a4.45,4.45,0,0,1,3.07,1,3.87,3.87,0,0,1,.9,1.22,3.56,3.56,0,0,1,.33,1.53v.9h-2.67v-.76a1.68,1.68,0,0,0-.45-1.17,1.57,1.57,0,0,0-1.2-.49,1.42,1.42,0,0,0-1.32.53,2.45,2.45,0,0,0-.33,1.33v8.14a1.93,1.93,0,0,0,.35,1.17,1.51,1.51,0,0,0,1.27.47,2.29,2.29,0,0,0,.56-.08,1.83,1.83,0,0,0,.57-.26,1.39,1.39,0,0,0,.39-.49,1.8,1.8,0,0,0,.16-.78v-.79Z" transform="translate(-231.94 -321.25)"/><path class="cls-3" d="M282.83,429V413.1h4.29q4.71,0,4.71,4.68a5.12,5.12,0,0,1-.51,2.39,3.63,3.63,0,0,1-1.79,1.59l2.88,7.27h-2.83l-2.48-6.8h-1.6V429Zm2.67-13.78v5H287a3.1,3.1,0,0,0,1.12-.17,1.49,1.49,0,0,0,.66-.48,2.13,2.13,0,0,0,.29-.77,8.14,8.14,0,0,0,0-2.13,2,2,0,0,0-.32-.79,2.29,2.29,0,0,0-1.88-.63Z" transform="translate(-231.94 -321.25)"/><path class="cls-5" d="M293.12,429l4.16-15.93h2.22L303.67,429H301l-.79-3.42h-3.64l-.78,3.42Zm6.59-5.57-1.31-5.77h0L297,423.46Z" transform="translate(-231.94 -321.25)"/><path class="cls-3" d="M305.63,429V415.25h-3.09V413.1h8.85v2.15H308.3V429Z" transform="translate(-231.94 -321.25)"/><path class="cls-5" d="M321.39,424.49v1a3.1,3.1,0,0,1-.33,1.4,3.9,3.9,0,0,1-.9,1.17,4.47,4.47,0,0,1-3,1.12,7,7,0,0,1-1.55-.18,3.91,3.91,0,0,1-1.41-.63,3.57,3.57,0,0,1-1-1.15,3.48,3.48,0,0,1-.41-1.8v-8.77a3.34,3.34,0,0,1,.31-1.45A3.5,3.5,0,0,1,314,414a4.4,4.4,0,0,1,1.38-.77,5.2,5.2,0,0,1,1.76-.28,4.45,4.45,0,0,1,3.07,1,3.87,3.87,0,0,1,.9,1.22,3.56,3.56,0,0,1,.33,1.53v.9h-2.67v-.76a1.68,1.68,0,0,0-.45-1.17,1.54,1.54,0,0,0-1.2-.49,1.43,1.43,0,0,0-1.32.53,2.45,2.45,0,0,0-.33,1.33v8.14a1.93,1.93,0,0,0,.35,1.17,1.51,1.51,0,0,0,1.27.47,2.44,2.44,0,0,0,.57-.08,1.78,1.78,0,0,0,.56-.26,1.29,1.29,0,0,0,.39-.49,1.67,1.67,0,0,0,.16-.78v-.79Z" transform="translate(-231.94 -321.25)"/><path class="cls-3" d="M323.9,429V413.1h2.67v6.83h3.3V413.1h2.67V429h-2.67v-7.09h-3.3V429Z" transform="translate(-231.94 -321.25)"/><path class="cls-5" d="M335.39,429V413.1h8v2.15h-5.29v4.68h4.61v2.15h-4.61v4.67h5.29V429Z" transform="translate(-231.94 -321.25)"/><path class="cls-3" d="M345.42,429V413.1h4.29q4.71,0,4.71,4.68a5.12,5.12,0,0,1-.51,2.39,3.67,3.67,0,0,1-1.79,1.59L355,429h-2.83l-2.49-6.8h-1.59V429Zm2.67-13.78v5h1.52a3.1,3.1,0,0,0,1.12-.17,1.49,1.49,0,0,0,.66-.48,2,2,0,0,0,.28-.77,7.13,7.13,0,0,0,0-2.13,1.85,1.85,0,0,0-.31-.79,2.3,2.3,0,0,0-1.89-.63Z" transform="translate(-231.94 -321.25)"/><path class="cls-6" d="M292.54,452.92h-1.23v-.28a1.27,1.27,0,0,0-.2-.73.73.73,0,0,0-.66-.3.8.8,0,0,0-.41.09,1,1,0,0,0-.25.24.92.92,0,0,0-.13.36,1.84,1.84,0,0,0,0,.41c0,.17,0,.31,0,.42a.75.75,0,0,0,.09.3.66.66,0,0,0,.21.23,1.9,1.9,0,0,0,.38.19l.93.37a2.54,2.54,0,0,1,.66.37,1.57,1.57,0,0,1,.4.49,2.14,2.14,0,0,1,.18.65,6.73,6.73,0,0,1,.05.83,4.6,4.6,0,0,1-.11,1,2.07,2.07,0,0,1-.35.78,1.72,1.72,0,0,1-.66.53,2.29,2.29,0,0,1-1,.19,2.21,2.21,0,0,1-.82-.15,2,2,0,0,1-1.26-1.88v-.45h1.22V457a1,1,0,0,0,.2.61.76.76,0,0,0,.66.27,1.1,1.1,0,0,0,.49-.09.62.62,0,0,0,.27-.26,1,1,0,0,0,.11-.4,4.27,4.27,0,0,0,0-.52c0-.23,0-.41,0-.56a.91.91,0,0,0-.1-.34.66.66,0,0,0-.22-.22,1.82,1.82,0,0,0-.37-.18l-.87-.36a1.93,1.93,0,0,1-1.06-.86,2.93,2.93,0,0,1-.27-1.34,3,3,0,0,1,.13-.91,2.18,2.18,0,0,1,.39-.74,1.8,1.8,0,0,1,.65-.5,2.2,2.2,0,0,1,.93-.19,2.05,2.05,0,0,1,.83.17,2,2,0,0,1,.65.45,1.84,1.84,0,0,1,.56,1.32Z" transform="translate(-231.94 -321.25)"/><path class="cls-6" d="M293.38,451.68v-1.22h1.22v1.22Zm0,7.32v-6.08h1.22V459Z" transform="translate(-231.94 -321.25)"/><path class="cls-6" d="M295.61,459v-6.08h1.22v.58h0a1.59,1.59,0,0,1,.46-.47,1.22,1.22,0,0,1,.69-.19,1.42,1.42,0,0,1,.45.08,1,1,0,0,1,.41.26,1.25,1.25,0,0,1,.29.46,2,2,0,0,1,.11.69V459H298v-4.21a.84.84,0,0,0-.15-.53.54.54,0,0,0-.45-.19.53.53,0,0,0-.48.21,1.35,1.35,0,0,0-.13.63V459Z" transform="translate(-231.94 -321.25)"/><path class="cls-6" d="M301.57,457.25a.57.57,0,0,0,.16.44.6.6,0,0,0,.44.16.47.47,0,0,0,.46-.21,1.07,1.07,0,0,0,.14-.4H304a1.75,1.75,0,0,1-.5,1.29,1.78,1.78,0,0,1-.57.4,2.06,2.06,0,0,1-.76.14,1.9,1.9,0,0,1-1-.24,1.67,1.67,0,0,1-.61-.63,1.6,1.6,0,0,1-.18-.56,3.56,3.56,0,0,1,0-.68v-2a3.73,3.73,0,0,1,0-.69,1.55,1.55,0,0,1,.18-.55,1.7,1.7,0,0,1,.61-.64,1.9,1.9,0,0,1,1-.24,1.84,1.84,0,0,1,.76.15,1.74,1.74,0,0,1,.59.39,2.09,2.09,0,0,1,.48,1.41h-1.23a.79.79,0,0,0-.16-.55.59.59,0,0,0-.44-.17.6.6,0,0,0-.44.17.74.74,0,0,0-.16.52Z" transform="translate(-231.94 -321.25)"/><path class="cls-6" d="M308.26,456.42h-2.43v.83a.61.61,0,0,0,.16.44.6.6,0,0,0,.44.16.47.47,0,0,0,.46-.21.92.92,0,0,0,.14-.4h1.23a1.75,1.75,0,0,1-.5,1.29,1.78,1.78,0,0,1-.57.4,2.06,2.06,0,0,1-.76.14,1.9,1.9,0,0,1-1-.24,1.67,1.67,0,0,1-.61-.63,1.6,1.6,0,0,1-.18-.56,3.56,3.56,0,0,1-.05-.68v-2a3.73,3.73,0,0,1,.05-.69,1.55,1.55,0,0,1,.18-.55,1.7,1.7,0,0,1,.61-.64,1.9,1.9,0,0,1,1-.24,1.84,1.84,0,0,1,.76.15,1.74,1.74,0,0,1,.59.39,2,2,0,0,1,.48,1.36Zm-2.43-1H307v-.7a.74.74,0,0,0-.16-.52.59.59,0,0,0-.44-.17.6.6,0,0,0-.44.17.79.79,0,0,0-.16.52Z" transform="translate(-231.94 -321.25)"/><path class="cls-6" d="M311.29,459v-1.15l2.21-4.17a1.4,1.4,0,0,0,.19-.54,4.73,4.73,0,0,0,0-.58c0-.11,0-.22,0-.33a.74.74,0,0,0-.07-.31.52.52,0,0,0-.52-.31.54.54,0,0,0-.6.61v.7h-1.23v-.68a1.79,1.79,0,0,1,.15-.72,1.65,1.65,0,0,1,.39-.58,1.74,1.74,0,0,1,.58-.41,1.72,1.72,0,0,1,.72-.15,1.74,1.74,0,0,1,.82.18,1.53,1.53,0,0,1,.57.47,2.19,2.19,0,0,1,.32.69,3,3,0,0,1,.1.81c0,.21,0,.38,0,.52s0,.28-.05.41a1.51,1.51,0,0,1-.12.38c-.06.13-.13.28-.23.47l-1.8,3.47h2.21V459Z" transform="translate(-231.94 -321.25)"/><path class="cls-6" d="M315.76,452.22a1.89,1.89,0,0,1,.15-.77,1.78,1.78,0,0,1,.4-.57,1.69,1.69,0,0,1,.58-.37,1.9,1.9,0,0,1,1.38,0,1.69,1.69,0,0,1,.58.37,1.78,1.78,0,0,1,.4.57,1.89,1.89,0,0,1,.15.77v5a1.84,1.84,0,0,1-.15.76,1.72,1.72,0,0,1-.4.58,1.85,1.85,0,0,1-.58.37,2,2,0,0,1-1.38,0,1.85,1.85,0,0,1-.58-.37,1.72,1.72,0,0,1-.4-.58,1.84,1.84,0,0,1-.15-.76Zm1.22,5a.6.6,0,0,0,.17.43.6.6,0,0,0,.86,0,.6.6,0,0,0,.17-.43v-5a.62.62,0,0,0-.17-.44.63.63,0,0,0-.86,0,.62.62,0,0,0-.17.44Z" transform="translate(-231.94 -321.25)"/><path class="cls-6" d="M321.67,459v-7.25l-1.22.9v-1.29l1.22-.9h1.23V459Z" transform="translate(-231.94 -321.25)"/><path class="cls-6" d="M327.89,450.46,326.5,454l0,0a.49.49,0,0,1,.19-.08,1.42,1.42,0,0,1,.33,0,1.17,1.17,0,0,1,.6.16,1.24,1.24,0,0,1,.43.39,1.66,1.66,0,0,1,.13.27,1.71,1.71,0,0,1,.08.34c0,.15,0,.33,0,.55s0,.5,0,.83,0,.51,0,.69a4.41,4.41,0,0,1,0,.45,1.31,1.31,0,0,1-.09.33,1.66,1.66,0,0,1-.13.27,1.68,1.68,0,0,1-.65.62,1.9,1.9,0,0,1-.9.21,1.77,1.77,0,0,1-.9-.22,1.7,1.7,0,0,1-.64-.61,1.82,1.82,0,0,1-.15-.27,2,2,0,0,1-.08-.33,2.68,2.68,0,0,1,0-.45c0-.18,0-.41,0-.69s0-.48,0-.65a3,3,0,0,1,0-.45,2.72,2.72,0,0,1,.07-.33c0-.1.07-.21.11-.32l1.61-4.29Zm-.78,5.19a.57.57,0,0,0-.18-.44.6.6,0,0,0-.84,0,.57.57,0,0,0-.18.44v1.59a.57.57,0,0,0,.18.44.6.6,0,0,0,.84,0,.57.57,0,0,0,.18-.44Z" transform="translate(-231.94 -321.25)"/><g class="cls-7"><path class="cls-3" d="M380.57,346c-.11-13.75-8.1-17-17.77-7.23L250.73,452.06c-9.67,9.77-6.33,17.66,7.42,17.53l98.33-.94a25.14,25.14,0,0,0,24.81-25.24Z" transform="translate(-231.94 -321.25)"/></g><line class="cls-8" x1="42.88" y1="56.58" x2="100.3" y2="56.58"/><line class="cls-8" x1="45.7" y1="83.41" x2="103.11" y2="83.41"/><line class="cls-8" x1="45.7" y1="113.41" x2="103.11" y2="113.41"/></svg>